# xmcd CD database file
#
# Track frame offsets:
#	150
#	10410
#	19477
#	30977
#	41530
#	59832
#	70250
#	82192
#	93047
#	105462
#	117830
#	127397
#
# Disc length: 1851 seconds
#
# Revision: 1
# Processed by: cddbd v1.5.1PL2 Copyright (c) Steve Scherf et al.
# Submitted via: CDex 1.51
#
DISCID=a307390c
DTITLE=Sambossa - 5
DYEAR=1965
DGENRE=mib
TTITLE0=Ela vai, ela vem
TTITLE1=Diagonal
TTITLE2=Baiaozinho
TTITLE3=Samba de Verao
TTITLE4=Corcovado
TTITLE5=Tristeza de nos dois
TTITLE6=Matais matos blues
TTITLE7=Sambossa 5
TTITLE8=Rosita's farm
TTITLE9=Sambaqui
TTITLE10=Indeciso
TTITLE11=Tensao
EXTD=YEAR: 1965
EXTT0=
EXTT1=
EXTT2=
EXTT3=
EXTT4=
EXTT5=
EXTT6=
EXTT7=
EXTT8=
EXTT9=
EXTT10=
EXTT11=
PLAYORDER=
